<?xml version="1.0" encoding="utf-8"?>
<!-- Generator: Adobe Illustrator 23.0.1, SVG Export Plug-In . SVG Version: 6.00 Build 0)  -->
<svg version="1.1" id="HLL_Logo" xmlns="http://www.w3.org/2000/svg" xmlns:xlink="http://www.w3.org/1999/xlink" x="0px" y="0px"
	 viewBox="0 0 1000 1000" style="enable-background:new 0 0 1000 1000;" xml:space="preserve">
<style type="text/css">
	.st0{fill:url(#SVGID_1_);}
	.st1{fill:url(#SVGID_2_);}
</style>
<linearGradient id="SVGID_1_" gradientUnits="userSpaceOnUse" x1="593.5617" y1="406.0406" x2="98.9922" y2="900.6102">
	<stop  offset="0" style="stop-color:#8B66FF"/>
	<stop  offset="1" style="stop-color:#FF6666"/>
</linearGradient>
<path class="st0" d="M593.56,406.04c-31.42-31.42-71.04-55.19-114.74-60.11c-6.97,4.79-32.17,53.16-36.37,68.54
	c34-2.98,72.57,11.94,101.66,41.03c15.99,15.99,26.84,31.45,33.19,47.28c6.42,16,8.2,32.86,5.46,51.54
	c-3.56,24.29-14.78,51.95-33.36,82.23c-22.51,36.7-55.91,77.28-99.26,120.64s-83.94,76.75-120.64,99.26
	c-30.28,18.57-57.94,29.8-82.23,33.36c-18.68,2.74-35.54,0.95-51.54-5.46c-15.82-6.34-31.29-17.2-47.28-33.19
	c-31.43-31.43-42.86-62.27-37.06-100c3.81-24.75,15.14-52.68,33.69-83.01c22.29-36.45,55.03-76.37,97.33-118.67
	c30.96-30.96,62.93-57.27,90.92-77.64c0-23.78,8.39-75.54,15.39-92.32c-45.3,24.36-99.53,64.27-155.76,120.51
	C1.07,691.9,14.32,815.94,98.99,900.61s204.26,102.38,400.6-93.97S678.24,490.72,593.56,406.04z"/>
<linearGradient id="SVGID_2_" gradientUnits="userSpaceOnUse" x1="406.0406" y1="593.5617" x2="900.6102" y2="98.9921">
	<stop  offset="0" style="stop-color:#66E2FF"/>
	<stop  offset="1" style="stop-color:#FFBD66"/>
</linearGradient>
<path class="st1" d="M900.61,98.99c-84.67-84.67-208.71-97.92-400.6,93.97s-178.64,315.93-93.97,400.6
	c29.2,29.2,68.54,48.67,107.75,55.92c12.59-9.79,33.57-43.36,39.17-64.35c-14.2,0.66-37.53-2.77-50.18-7.84
	c-15.82-6.34-31.29-17.2-47.28-33.19c-31.43-31.43-42.86-62.27-37.06-100c3.81-24.75,15.14-52.68,33.69-83.01
	c22.29-36.45,55.03-76.37,97.33-118.67c42.3-42.3,82.22-75.04,118.67-97.33c30.34-18.55,58.27-29.89,83.02-33.69
	c37.73-5.8,68.57,5.62,100,37.06c15.99,15.99,26.84,31.45,33.19,47.28c6.42,16,8.2,32.86,5.46,51.54
	c-3.56,24.29-14.78,51.95-33.36,82.23c-22.51,36.7-55.91,77.28-99.26,120.64c-27.71,27.71-57.37,52.71-82.53,72.05
	c1.4,18.19-4.2,81.13-13.99,92.32c41.82-24.7,94.27-63.21,145.97-114.91C1002.99,303.25,985.28,183.67,900.61,98.99z"/>
</svg>
